<?xml version="1.0" encoding="UTF-8" standalone="no"?>
<!-- Created with Inkscape (http://www.inkscape.org/) -->

<svg
   width="133.80173mm"
   height="138.28381mm"
   viewBox="0 0 133.80173 138.28381"
   version="1.1"
   id="svg1"
   inkscape:version="1.4.3 (0d15f75042, 2025-12-25)"
   sodipodi:docname="logo.svg"
   xmlns:inkscape="http://www.inkscape.org/namespaces/inkscape"
   xmlns:sodipodi="http://sodipodi.sourceforge.net/DTD/sodipodi-0.dtd"
   xmlns="http://www.w3.org/2000/svg"
   xmlns:svg="http://www.w3.org/2000/svg">
  <sodipodi:namedview
     id="namedview1"
     pagecolor="#ffffff"
     bordercolor="#000000"
     borderopacity="0.25"
     inkscape:showpageshadow="2"
     inkscape:pageopacity="0.0"
     inkscape:pagecheckerboard="0"
     inkscape:deskcolor="#d1d1d1"
     inkscape:document-units="mm"
     inkscape:zoom="0.75235016"
     inkscape:cx="640.65913"
     inkscape:cy="364.19212"
     inkscape:window-width="2048"
     inkscape:window-height="1080"
     inkscape:window-x="0"
     inkscape:window-y="0"
     inkscape:window-maximized="1"
     inkscape:current-layer="layer1" />
  <defs
     id="defs1" />
  <g
     inkscape:label="Layer 1"
     inkscape:groupmode="layer"
     id="layer1"
     transform="translate(45.24364,-163.51251)">
    <g
       transform="matrix(0.5057068,0,0,0.5057068,372.42327,744.49245)"
       style="fill:#59c4d9;fill-opacity:1"
       id="g429">
      <path
         style="opacity:1;fill:#59c4d9;fill-opacity:1;fill-rule:nonzero;stroke:none;stroke-width:0;stroke-miterlimit:4;stroke-dasharray:none;stroke-opacity:1"
         d="m -819.88521,-1018.8494 v -97.4024 h -6.02191 v 97.4024 z"
         id="path424"
         inkscape:connector-curvature="0"
         sodipodi:nodetypes="ccccc" />
      <path
         style="opacity:1;fill:#59c4d9;fill-opacity:1;fill-rule:nonzero;stroke:none;stroke-width:0;stroke-miterlimit:4;stroke-dasharray:none;stroke-opacity:1"
         d="m -612.16592,-951.08628 v -54.63022 h -6.02186 v 54.63022 z"
         id="path425"
         inkscape:connector-curvature="0"
         sodipodi:nodetypes="ccccc" />
      <path
         style="opacity:1;fill:#59c4d9;fill-opacity:1;fill-rule:nonzero;stroke:none;stroke-width:0;stroke-miterlimit:4;stroke-dasharray:none;stroke-opacity:1"
         d="m -810.00884,-1148.8474 -15.89828,32.5956 213.7412,115.1817 11.1252,-40.2342 z"
         id="path426"
         inkscape:connector-curvature="0"
         sodipodi:nodetypes="ccccc" />
      <path
         inkscape:connector-curvature="0"
         id="path427"
         d="m -561.32379,-1018.8494 v -97.4024 h -6.02186 v 97.4024 z"
         style="opacity:1;fill:#59c4d9;fill-opacity:1;fill-rule:nonzero;stroke:none;stroke-width:0;stroke-miterlimit:4;stroke-dasharray:none;stroke-opacity:1"
         sodipodi:nodetypes="ccccc" />
      <path
         inkscape:connector-curvature="0"
         id="path428"
         d="m -769.04303,-951.08628 v -54.63022 h -6.0219 v 54.63022 z"
         style="opacity:1;fill:#59c4d9;fill-opacity:1;fill-rule:nonzero;stroke:none;stroke-width:0;stroke-miterlimit:4;stroke-dasharray:none;stroke-opacity:1"
         sodipodi:nodetypes="ccccc" />
      <path
         sodipodi:nodetypes="ccccc"
         inkscape:connector-curvature="0"
         id="path429"
         d="m -786.19011,-1041.3043 11.12518,40.2342 213.74114,-115.1817 -15.89821,-32.5956 z"
         style="opacity:1;fill:#59c4d9;fill-opacity:1;fill-rule:nonzero;stroke:none;stroke-width:0;stroke-miterlimit:4;stroke-dasharray:none;stroke-opacity:1" />
    </g>
    <g
       id="g220"
       style="fill:#59c4d9;fill-opacity:1"
       transform="matrix(10.71742,0,0,10.71742,-350.76957,-3079.9552)">
      <path
         style="font-weight:900;font-size:3.175px;line-height:0.9;font-family:Montserrat;-inkscape-font-specification:'Montserrat Heavy';fill:#59c4d9;fill-opacity:1;stroke-width:0.875"
         d="m 39.143974,313.31521 v 2.22261 h 1.847949 v -0.56534 h -1.11156 v -0.29198 h 0.939994 v -0.54001 h -0.939994 v -0.26045 h 1.070219 v -0.56483 z"
         id="path215" />
      <path
         style="font-weight:900;font-size:3.175px;line-height:0.9;font-family:Montserrat;-inkscape-font-specification:'Montserrat Heavy';fill:#59c4d9;fill-opacity:1;stroke-width:0.875"
         d="m 36.454732,313.31521 0.939478,2.22261 h 0.736906 l 0.939994,-2.22261 h -0.736906 l -0.544153,1.29708 -0.529166,-1.29708 z"
         id="path216" />
      <path
         style="font-weight:900;font-size:3.175px;line-height:0.9;font-family:Montserrat;-inkscape-font-specification:'Montserrat Heavy';fill:#59c4d9;fill-opacity:1;stroke-width:0.875"
         d="m 35.584501,313.31521 v 2.22261 h 0.749309 v -2.22261 z"
         id="path217" />
      <path
         style="font-weight:900;font-size:3.175px;line-height:0.9;font-family:Montserrat;-inkscape-font-specification:'Montserrat Heavy';fill:#59c4d9;fill-opacity:1;stroke-width:0.875"
         d="m 33.340194,313.31521 v 0.58085 H 33.9908 v 1.64176 h 0.749308 v -1.64176 h 0.651123 v -0.58085 z"
         id="path218" />
      <path
         id="path219"
         style="font-weight:900;font-size:3.175px;line-height:0.9;font-family:Montserrat;-inkscape-font-specification:'Montserrat Heavy';fill:#59c4d9;fill-opacity:1;stroke-width:0.875"
         d="m 31.790418,313.31525 -0.971517,2.22261 h 0.762227 l 0.148828,-0.38758 h 0.845427 l 0.148828,0.38758 h 0.774629 l -0.971516,-2.22261 z m 0.362251,0.73536 0.214974,0.56017 h -0.430464 z" />
      <path
         style="font-weight:900;font-size:3.175px;line-height:0.9;font-family:Montserrat;-inkscape-font-specification:'Montserrat Heavy';fill:#59c4d9;fill-opacity:1;stroke-width:0.875"
         d="m 28.507414,313.31521 v 2.22261 h 0.730705 v -1.0108 l 0.844393,1.0108 h 0.615983 v -2.22261 h -0.730188 v 1.01079 l -0.84491,-1.01079 z"
         id="path220" />
    </g>
    <g
       id="g231"
       style="fill:#212123;fill-opacity:1"
       transform="matrix(4.8411143,0,0,4.8411143,-48.31378,-1249.5794)">
      <path
         style="font-weight:900;font-size:3.175px;line-height:0.9;font-family:Montserrat;-inkscape-font-specification:'Montserrat Heavy';fill:#212123;fill-opacity:1;stroke-width:0.875"
         d="m 12.042269,313.31521 v 0.58085 h 0.650606 v 1.64176 h 0.749309 v -1.64176 h 0.651123 v -0.58085 z"
         id="path226" />
      <path
         style="font-weight:900;font-size:3.175px;line-height:0.9;font-family:Montserrat;-inkscape-font-specification:'Montserrat Heavy';fill:#212123;fill-opacity:1;stroke-width:0.875"
         d="m 10.073397,313.31521 v 2.22261 h 1.847949 v -0.56534 h -1.111043 v -0.29198 h 0.939477 v -0.54001 h -0.939477 v -0.26045 h 1.069702 v -0.56483 z"
         id="path227" />
      <path
         id="path228"
         style="font-weight:900;font-size:3.175px;line-height:0.9;font-family:Montserrat;-inkscape-font-specification:'Montserrat Heavy';fill:#212123;fill-opacity:1;stroke-width:0.875"
         d="m 7.7464072,313.31525 v 2.22261 h 0.7493083 v -0.54622 h 0.3203938 c 0.2074334,0 0.3866348,-0.0341 0.5369182,-0.10181 0.1524,-0.0699 0.2698832,-0.16709 0.3524332,-0.29197 0.08255,-0.12489 0.1235067,-0.27297 0.1235067,-0.44442 0,-0.17145 -0.040957,-0.31953 -0.1235067,-0.44441 -0.08255,-0.127 -0.2000332,-0.22476 -0.3524332,-0.29249 -0.1502834,-0.0677 -0.3294848,-0.10129 -0.5369182,-0.10129 z M 8.4957155,313.893 H 8.768567 c 0.1037167,0 0.1802433,0.0232 0.2289266,0.0698 0.0508,0.0466 0.075964,0.11025 0.075964,0.19068 0,0.0804 -0.025164,0.14409 -0.075964,0.19069 -0.048683,0.0465 -0.1252099,0.0698 -0.2289266,0.0698 H 8.4957155 Z" />
      <path
         id="path229"
         style="font-weight:900;font-size:3.175px;line-height:0.9;font-family:Montserrat;-inkscape-font-specification:'Montserrat Heavy';fill:#212123;fill-opacity:1;stroke-width:0.875"
         d="m 5.4189007,313.31525 v 2.22261 H 6.168209 v -0.54622 h 0.3209106 c 0.2074333,0 0.386118,-0.0341 0.5364014,-0.10181 0.1524,-0.0699 0.2698832,-0.16709 0.3524332,-0.29197 0.08255,-0.12489 0.1240235,-0.27297 0.1240235,-0.44442 0,-0.17145 -0.041474,-0.31953 -0.1240235,-0.44441 -0.08255,-0.127 -0.2000332,-0.22476 -0.3524332,-0.29249 -0.1502834,-0.0677 -0.3289681,-0.10129 -0.5364014,-0.10129 z M 6.168209,313.893 h 0.2733683 c 0.1037167,0 0.1797265,0.0232 0.2284098,0.0698 0.0508,0.0466 0.075964,0.11025 0.075964,0.19068 0,0.0804 -0.025164,0.14409 -0.075964,0.19069 -0.048683,0.0465 -0.1246931,0.0698 -0.2284098,0.0698 H 6.168209 Z" />
      <path
         style="font-weight:900;font-size:3.175px;line-height:0.9;font-family:Montserrat;-inkscape-font-specification:'Montserrat Heavy';fill:#212123;fill-opacity:1;stroke-width:0.875"
         d="m 2.9105267,313.31521 v 1.22215 c 0,0.33232 0.095271,0.59048 0.2857706,0.77463 0.1905,0.18415 0.4565841,0.27647 0.7973674,0.27647 0.3407833,0 0.6063506,-0.0923 0.7968506,-0.27647 0.1905,-0.18415 0.2857706,-0.44231 0.2857706,-0.77463 v -1.22215 H 4.33938 v 1.19993 c 0,0.16933 -0.030601,0.29028 -0.091984,0.36225 -0.059267,0.0698 -0.1416968,0.10439 -0.2475301,0.10439 -0.1037167,0 -0.1861468,-0.0345 -0.2475302,-0.10439 -0.061383,-0.072 -0.092501,-0.19292 -0.092501,-0.36225 v -1.19993 z"
         id="path230" />
      <path
         id="path231"
         style="font-weight:900;font-size:3.175px;line-height:0.9;font-family:Montserrat;-inkscape-font-specification:'Montserrat Heavy';fill:#212123;fill-opacity:1;stroke-width:0.875"
         d="m 0.63417982,313.31525 v 2.22261 H 1.3834881 v -0.54622 h 0.3209106 c 0.2074334,0 0.3861181,-0.0341 0.5364014,-0.10181 0.1524,-0.0699 0.2698833,-0.16709 0.3524333,-0.29197 0.08255,-0.12489 0.1240234,-0.27297 0.1240234,-0.44442 0,-0.17145 -0.041473,-0.31953 -0.1240234,-0.44441 -0.08255,-0.127 -0.2000333,-0.22476 -0.3524333,-0.29249 -0.1502833,-0.0677 -0.328968,-0.10129 -0.5364014,-0.10129 z M 1.3834881,313.893 h 0.2733683 c 0.1037167,0 0.1797265,0.0232 0.2284098,0.0698 0.0508,0.0466 0.075964,0.11025 0.075964,0.19068 0,0.0804 -0.025164,0.14409 -0.075964,0.19069 -0.048683,0.0465 -0.1246931,0.0698 -0.2284098,0.0698 H 1.3834881 Z" />
    </g>
    <g
       id="g232"
       transform="matrix(1.4601938,0,0,1.4601938,20.820838,-200.80529)"
       style="fill:#212123;fill-opacity:1">
      <path
         id="path221"
         style="font-weight:900;font-size:3.175px;line-height:0.9;font-family:Montserrat;-inkscape-font-specification:'Montserrat Heavy';fill:#212123;stroke-width:2.90097;fill-opacity:1"
         d="m 39.325386,320.5197 v 7.36882 h 2.484249 v -1.85377 h 0.676745 l 1.248977,1.85377 h 2.653865 l -1.547087,-2.26839 c 0.414205,-0.21086 0.739843,-0.49346 0.978279,-0.84808 0.273685,-0.41406 0.411188,-0.905 0.411188,-1.47342 0,-0.56843 -0.137489,-1.05937 -0.411188,-1.4734 -0.273686,-0.42105 -0.663188,-0.74516 -1.168454,-0.96971 -0.498247,-0.22446 -1.090657,-0.33582 -1.778382,-0.33582 z m 2.484249,1.91547 h 0.904608 c 0.343853,0 0.597567,0.0769 0.758983,0.23141 0.168422,0.1545 0.251837,0.36552 0.251837,0.63218 0,0.26656 -0.08341,0.47771 -0.251837,0.63221 -0.161393,0.15417 -0.41512,0.23142 -0.758983,0.23142 h -0.904608 z" />
      <path
         style="font-weight:900;font-size:3.175px;line-height:0.9;font-family:Montserrat;-inkscape-font-specification:'Montserrat Heavy';fill:#212123;stroke-width:2.90097;fill-opacity:1"
         d="m 32.240987,320.51957 v 7.36882 h 6.126675 v -1.87432 h -3.683543 v -0.96803 h 3.114738 v -1.79035 H 34.684119 V 322.3922 H 38.2306 v -1.87263 z"
         id="path222" />
      <path
         style="font-weight:900;font-size:3.175px;line-height:0.9;font-family:Montserrat;-inkscape-font-specification:'Montserrat Heavy';fill:#212123;stroke-width:2.90097;fill-opacity:1"
         d="m 24.798516,320.51957 v 1.92574 h 2.158728 v 5.44308 h 2.48425 v -5.44308 h 2.157013 v -1.92574 z"
         id="path223" />
      <path
         id="path224"
         style="font-weight:900;font-size:3.175px;line-height:0.9;font-family:Montserrat;-inkscape-font-specification:'Montserrat Heavy';fill:#212123;stroke-width:2.90097;fill-opacity:1"
         d="m 12.483487,320.5197 -3.2209591,7.36882 h 2.5253701 l 0.493423,-1.28498 h 2.802919 l 0.493423,1.28498 h 2.568202 l -3.22096,-7.36882 z m 1.199294,2.43801 0.714437,1.85718 h -1.427161 z" />
      <path
         style="font-weight:900;font-size:3.175px;line-height:0.9;font-family:Montserrat;-inkscape-font-specification:'Montserrat Heavy';fill:#212123;stroke-width:2.90097;fill-opacity:1"
         d="m 0.01940149,320.51957 v 7.36882 H 2.2826404 v -3.24666 l 1.6002003,2.58361 h 1.0947821 l 1.6036285,-2.69843 0.018898,3.36148 h 2.2615248 l -0.020555,-7.36882 H 6.7988935 l -2.3334821,3.92171 -2.4037253,-3.92171 z"
         id="path225" />
      <path
         style="font-weight:900;font-size:3.175px;line-height:0.9;font-family:Montserrat;-inkscape-font-specification:'Montserrat Heavy';fill:#212123;stroke-width:2.90097;fill-opacity:1"
         d="m 21.63067,320.35181 c -0.757899,0 -1.392883,0.11106 -1.905164,0.33581 -0.505265,0.22446 -0.888246,0.52735 -1.147894,0.9063 -0.252633,0.37192 -0.378635,0.78598 -0.378635,1.24214 0,0.39298 0.07363,0.7219 0.221004,0.98855 0.147369,0.2596 0.340491,0.47086 0.57909,0.63222 0.245604,0.16146 0.51238,0.29076 0.8001,0.38889 0.294738,0.0981 0.586048,0.17837 0.873768,0.24169 0.28771,0.056 0.551224,0.11339 0.789823,0.16975 0.245604,0.0491 0.441984,0.1114 0.589367,0.18832 0.147369,0.0772 0.221004,0.18201 0.221004,0.31529 0,0.0842 -0.03117,0.15947 -0.09422,0.22279 -0.06316,0.056 -0.166333,0.10013 -0.306673,0.13527 -0.133345,0.0265 -0.318212,0.0428 -0.556814,0.0428 -0.40702,0 -0.829309,-0.0587 -1.264397,-0.17804 -0.42807,-0.12631 -0.817576,-0.29142 -1.168454,-0.49512 l -0.798389,1.81094 c 0.371934,0.22445 0.844868,0.40617 1.420307,0.54654 0.575443,0.14024 1.171112,0.21086 1.78866,0.21086 0.764918,0 1.401612,-0.11306 1.906878,-0.33751 0.505265,-0.23174 0.88327,-0.53272 1.135903,-0.90464 0.259661,-0.37895 0.388912,-0.79297 0.388912,-1.24211 0,-0.38598 -0.07363,-0.71006 -0.221004,-0.96972 -0.147369,-0.25959 -0.34375,-0.46912 -0.589367,-0.63048 -0.238609,-0.16146 -0.500386,-0.29242 -0.788106,-0.39062 -0.287709,-0.0981 -0.579033,-0.17506 -0.873771,-0.23142 -0.28771,-0.056 -0.554486,-0.10874 -0.8001,-0.15781 -0.238576,-0.0494 -0.431707,-0.10808 -0.579086,-0.17804 -0.14737,-0.0772 -0.221004,-0.18036 -0.221004,-0.30667 0,-0.0842 0.02785,-0.16113 0.08394,-0.23142 0.06316,-0.0703 0.164609,-0.12598 0.30495,-0.16775 0.140341,-0.0421 0.330213,-0.0633 0.568805,-0.0633 0.32282,0 0.651717,0.0458 0.98856,0.13726 0.343863,0.0912 0.699031,0.22843 1.063946,0.41117 l 0.746988,-1.80065 c -0.385965,-0.21749 -0.821302,-0.37792 -1.305515,-0.48315 -0.484213,-0.1051 -0.97517,-0.15749 -1.473417,-0.15749 z"
         id="path232" />
    </g>
  </g>
</svg>
